<svg width="9" height="13" viewBox="0 0 9 13" fill="none" xmlns="http://www.w3.org/2000/svg">
<path d="M1.55084 4.25205C1.43331 4.35405 1.27461 4.41127 1.10921 4.41127C0.943822 4.41127 0.785113 4.35405 0.667586 4.25205C0.60956 4.20196 0.56348 4.14226 0.532027 4.07641C0.500573 4.01057 0.484375 3.9399 0.484375 3.86852C0.484375 3.79714 0.500573 3.72647 0.532027 3.66062C0.56348 3.59478 0.60956 3.53507 0.667586 3.48499L4.197 0.453155C4.31479 0.351297 4.47361 0.294189 4.63908 0.294189C4.80455 0.294189 4.96336 0.351297 5.08116 0.453155L8.61057 3.48499C8.6686 3.53507 8.71467 3.59478 8.74613 3.66062C8.77758 3.72647 8.79378 3.79714 8.79378 3.86852C8.79378 3.9399 8.77758 4.01057 8.74613 4.07641C8.71467 4.14226 8.6686 4.20196 8.61057 4.25205C8.49277 4.35391 8.33396 4.41102 8.16849 4.41102C8.00302 4.41102 7.84421 4.35391 7.72641 4.25205L4.63772 1.76563L1.55084 4.25205Z" fill="#F9F9F9"/>
<path d="M1.55084 8.21006C1.43331 8.31206 1.27461 8.36927 1.10921 8.36927C0.943822 8.36927 0.785113 8.31206 0.667586 8.21006C0.60956 8.15997 0.56348 8.10027 0.532027 8.03442C0.500573 7.96858 0.484375 7.89791 0.484375 7.82653C0.484375 7.75514 0.500573 7.68447 0.532027 7.61863C0.56348 7.55279 0.60956 7.49308 0.667586 7.443L4.197 4.41116C4.31479 4.30931 4.47361 4.2522 4.63908 4.2522C4.80455 4.2522 4.96336 4.30931 5.08116 4.41116L8.61057 7.443C8.6686 7.49308 8.71467 7.55279 8.74613 7.61863C8.77758 7.68447 8.79378 7.75514 8.79378 7.82653C8.79378 7.89791 8.77758 7.96858 8.74613 8.03442C8.71467 8.10027 8.6686 8.15997 8.61057 8.21006C8.49277 8.31191 8.33396 8.36902 8.16849 8.36902C8.00302 8.36902 7.84421 8.31191 7.72641 8.21006L4.63772 5.72364L1.55084 8.21006Z" fill="#F9F9F9"/>
<path d="M1.55084 12.1681C1.43331 12.2701 1.27461 12.3273 1.10921 12.3273C0.943822 12.3273 0.785113 12.2701 0.667586 12.1681C0.60956 12.118 0.56348 12.0583 0.532027 11.9924C0.500573 11.9266 0.484375 11.8559 0.484375 11.7845C0.484375 11.7132 0.500573 11.6425 0.532027 11.5766C0.56348 11.5108 0.60956 11.4511 0.667586 11.401L4.197 8.36917C4.31479 8.26731 4.47361 8.21021 4.63908 8.21021C4.80455 8.21021 4.96336 8.26731 5.08116 8.36917L8.61057 11.401C8.6686 11.4511 8.71467 11.5108 8.74613 11.5766C8.77758 11.6425 8.79378 11.7132 8.79378 11.7845C8.79378 11.8559 8.77758 11.9266 8.74613 11.9924C8.71467 12.0583 8.6686 12.118 8.61057 12.1681C8.49277 12.2699 8.33396 12.327 8.16849 12.327C8.00302 12.327 7.84421 12.2699 7.72641 12.1681L4.63772 9.68165L1.55084 12.1681Z" fill="#F9F9F9"/>
</svg>
